<?xml version="1.0" encoding="utf-8"?>
<!-- Generator: Adobe Illustrator 15.0.0, SVG Export Plug-In . SVG Version: 6.00 Build 0)  -->
<!DOCTYPE svg PUBLIC "-//W3C//DTD SVG 1.1//EN" "http://www.w3.org/Graphics/SVG/1.1/DTD/svg11.dtd">
<svg version="1.1" id="Warstwa_1" xmlns="http://www.w3.org/2000/svg" xmlns:xlink="http://www.w3.org/1999/xlink" x="0px" y="0px"
	 width="538.583px" height="538.584px" viewBox="0 0 538.583 538.584" enable-background="new 0 0 538.583 538.584"
	 xml:space="preserve">
<g id="tlo">
</g>
<g id="poziome">
</g>
<g id="pionowe">
	<g>
		
			<rect x="151.729" y="13.68" fill="#FFFFFF" stroke="#000000" stroke-linecap="round" stroke-linejoin="round" width="245.119" height="510.988"/>
		
			<rect x="141.547" y="506.548" fill="#FFFFFF" stroke="#000000" stroke-linecap="round" stroke-linejoin="round" width="255.12" height="17.991"/>
		
			<rect x="141.499" y="13.646" fill="#FFFFFF" stroke="#000000" stroke-linecap="round" stroke-linejoin="round" width="255.314" height="16.89"/>
		
			<rect x="141.458" y="260.988" fill="#FFFFFF" stroke="#000000" stroke-linecap="round" stroke-linejoin="round" width="255.427" height="16.889"/>
		<path fill="#FFFFFF" stroke="#000000" stroke-linecap="round" stroke-linejoin="round" d="M141.449,13.68"/>
		<path fill="#FFFFFF" stroke="#000000" stroke-linecap="round" stroke-linejoin="round" d="M141.46,524.604h33.501
			c0,0,1.389-44.016,0.695-50.82c-0.694-6.809,1.388-20.418,0.347-27.68c-1.042-7.26,2.083-29.947,1.737-38.113
			c-0.348-8.17,2.083-24.504,1.736-29.947c-0.348-5.446-1.736-30.854-0.695-40.838c1.042-9.981,0.347-46.735,0.347-60.351
			c0-13.613-0.347-52.635,2.431-64.886c2.778-12.252,0.348-25.411-1.042-32.218c-1.389-6.806-2.43-28.132-2.777-37.661
			c-0.348-9.528-0.695-64.433-0.348-80.768c0.348-16.334-1.389-47.645-1.389-47.645h-34.554L141.46,524.604z"/>
		<path fill="#FFFFFF" stroke="#000000" stroke-linecap="round" stroke-linejoin="round" d="M200.767,13.68h36.173
			c0,0-1.014,53.521,1.353,68.496c2.367,14.974,3.043,110.715,3.719,122.966c0.676,12.251-0.338,65.794-0.338,81.675
			c0,15.883,0.338,53.996-0.338,63.524c-0.676,9.527-1.015,29.041-2.705,34.031c-1.691,4.99-2.029,36.754-1.353,55.812
			c0.677,19.061-2.705,53.092-2.705,60.35c0,7.261-1.015,24.05-1.015,24.05h-29.411c0,0,0.338-45.375,0.676-65.339
			c0.338-19.967,3.38-75.324,0.676-89.844c-2.704-14.521-3.043-75.324-2.705-100.28s3.719-82.584,3.719-101.187
			c0-18.604-3.719-71.238-2.028-80.77c1.691-9.527-2.029-34.938-2.029-41.744C202.456,38.615,200.767,13.68,200.767,13.68z"/>
		<path fill="#FFFFFF" stroke="#000000" stroke-linecap="round" stroke-linejoin="round" d="M261.215,13.68h35.306
			c0,0,0.362,21.397,2.185,36.832c1.82,15.435,2.184,24.966,1.455,37.221s-0.363,54.923,1.092,78.074
			c1.457,23.147,1.092,72.625,1.092,93.96s-0.727,83.974-2.184,102.13c-1.455,18.153-4.731,55.379-5.097,82.611
			c-0.362,27.233-2.185,79.891-2.185,79.891H262.67c0,0,1.092-41.762,3.276-71.266c2.184-29.506,0.728-108.939,1.82-123.919
			c1.092-14.979,1.456-79.436,0.364-97.138c-1.092-17.702-0.364-59.008,0-70.811c0.364-11.803-1.82-44.029-3.64-61.732
			c-1.82-17.703-2.912-46.753-2.912-53.107C261.579,40.072,261.215,13.68,261.215,13.68z"/>
		<path fill="#FFFFFF" stroke="#000000" stroke-linecap="round" stroke-linejoin="round" d="M330.911,13.68h35.045
			c0,0,0.002,29.409-1.193,39.398c-1.193,9.99-1.988,24.977,0,30.878c1.99,5.903,0.795,15.893,0.398,19.525
			c-0.398,3.633-0.4,31.786,0.795,36.326c1.195,4.542,3.584,21.796,2.391,25.428c-1.193,3.633-3.188,29.516-1.594,35.419
			c1.594,5.901,0.797,43.136,1.594,59.482s1.594,44.5,0.797,60.847c-0.797,16.346-0.396,49.945,0.797,55.396
			c1.193,5.449,1.193,21.798,0.396,28.605c-0.797,6.811-3.98,42.229-2.391,49.043c1.594,6.81-1.193,22.246,0.398,27.695
			s1.592,14.531,1.193,20.436c-0.396,5.902-0.795,22.394-0.795,22.394h-38.23c0,0-3.584-18.763-3.584-20.578
			c0-1.813,2.787-18.162,2.787-26.334c0-8.174,2.787-100.808,2.787-114.431c0-13.621-2.389-62.209-3.186-70.836
			c-0.799-8.627,0.797-26.334,1.193-34.962c0.396-8.627,1.99-53.581,1.99-63.117c0-9.534-0.398-20.887-1.594-26.336
			c-1.195-5.448-0.795-15.438,0.398-24.065s-2.789-37.235-2.789-43.592c0-6.357,1.596-21.796,1.992-32.693
			c0.398-10.897-1.594-20.433-1.594-27.244C328.92,33.554,330.911,13.68,330.911,13.68z"/>
	</g>
</g>
</svg>
