<?xml version="1.0" encoding="utf-8"?>
<!-- Generator: Adobe Illustrator 15.0.0, SVG Export Plug-In . SVG Version: 6.00 Build 0)  -->
<!DOCTYPE svg PUBLIC "-//W3C//DTD SVG 1.1//EN" "http://www.w3.org/Graphics/SVG/1.1/DTD/svg11.dtd">
<svg version="1.1" id="Warstwa_1" xmlns="http://www.w3.org/2000/svg" xmlns:xlink="http://www.w3.org/1999/xlink" x="0px" y="0px"
	 width="538.583px" height="538.584px" viewBox="0 0 538.583 538.584" enable-background="new 0 0 538.583 538.584"
	 xml:space="preserve">
<g id="tlo">
</g>
<g id="poziome">
</g>
<g id="pionowe">
	<g>
		
			<rect x="24.396" y="13.68" fill="#FFFFFF" stroke="#000000" stroke-linecap="round" stroke-linejoin="round" width="499.604" height="510.988"/>
		
			<rect x="14.214" y="506.548" fill="#FFFFFF" stroke="#000000" stroke-linecap="round" stroke-linejoin="round" width="509.605" height="17.991"/>
		
			<rect x="14.166" y="13.646" fill="#FFFFFF" stroke="#000000" stroke-linecap="round" stroke-linejoin="round" width="509.799" height="16.89"/>
		
			<rect x="14.125" y="260.988" fill="#FFFFFF" stroke="#000000" stroke-linecap="round" stroke-linejoin="round" width="509.913" height="16.889"/>
		<path fill="#FFFFFF" stroke="#000000" stroke-linecap="round" stroke-linejoin="round" d="M14.116,13.68"/>
		<path fill="#FFFFFF" stroke="#000000" stroke-linecap="round" stroke-linejoin="round" d="M14.127,524.604h33.501
			c0,0,1.389-44.016,0.695-50.82c-0.694-6.809,1.388-20.418,0.347-27.68c-1.042-7.26,2.083-29.947,1.737-38.113
			c-0.348-8.17,2.083-24.504,1.736-29.947c-0.348-5.446-1.736-30.854-0.695-40.838c1.042-9.981,0.347-46.735,0.347-60.351
			c0-13.613-0.347-52.635,2.431-64.886c2.778-12.252,0.348-25.411-1.042-32.218c-1.389-6.806-2.43-28.132-2.777-37.661
			c-0.348-9.528-0.695-64.433-0.348-80.768c0.348-16.334-1.389-47.645-1.389-47.645H14.116L14.127,524.604z"/>
		<path fill="#FFFFFF" stroke="#000000" stroke-linecap="round" stroke-linejoin="round" d="M73.434,13.68h36.173
			c0,0-1.014,53.521,1.353,68.496c2.367,14.974,3.043,110.715,3.719,122.966c0.676,12.251-0.338,65.794-0.338,81.675
			c0,15.883,0.338,53.996-0.338,63.524c-0.676,9.527-1.015,29.041-2.705,34.031c-1.691,4.99-2.029,36.754-1.353,55.812
			c0.677,19.061-2.705,53.092-2.705,60.35c0,7.261-1.015,24.05-1.015,24.05h-29.41c0,0,0.338-45.375,0.676-65.339
			c0.338-19.967,3.38-75.324,0.676-89.844c-2.704-14.521-3.043-75.324-2.705-100.28s3.719-82.584,3.719-101.187
			c0-18.604-3.719-71.238-2.028-80.77c1.691-9.527-2.029-34.938-2.029-41.744C75.124,38.615,73.434,13.68,73.434,13.68z"/>
		<path fill="#FFFFFF" stroke="#000000" stroke-linecap="round" stroke-linejoin="round" d="M141.882,13.68h41.557
			c0,0,0.428,21.397,2.57,36.832c2.142,15.433,2.571,24.966,1.713,37.221c-0.856,12.255-0.427,54.923,1.286,78.074
			c1.713,23.147,1.285,72.625,1.285,93.96s-0.856,83.974-2.571,102.13c-1.713,18.153-5.569,55.379-5.998,82.611
			c-0.428,27.233-2.57,79.891-2.57,79.891h-35.56c0,0,1.286-41.762,3.856-71.266c2.57-29.506,0.857-108.939,2.142-123.919
			c1.286-14.979,1.714-79.436,0.428-97.138s-0.428-59.008,0-70.811c0.429-11.803-2.142-44.029-4.284-61.732
			c-2.144-17.703-3.428-46.753-3.428-53.107C142.311,40.072,141.882,13.68,141.882,13.68z"/>
		<path fill="#FFFFFF" stroke="#000000" stroke-linecap="round" stroke-linejoin="round" d="M221.214,13.68h37.702
			c0,0,0.001,29.409-1.285,39.398c-1.285,9.99-2.141,24.977,0,30.878c2.141,5.903,0.856,15.893,0.429,19.525
			c-0.429,3.633-0.43,31.786,0.856,36.326c1.285,4.542,3.855,21.796,2.571,25.428c-1.286,3.633-3.428,29.516-1.715,35.419
			c1.715,5.901,0.857,43.136,1.715,59.482c0.855,16.347,1.713,44.5,0.855,60.847c-0.855,16.346-0.429,49.945,0.857,55.396
			c1.285,5.449,1.285,21.798,0.428,28.605c-0.856,6.811-4.285,42.229-2.571,49.043c1.714,6.81-1.285,22.246,0.43,27.695
			c1.713,5.449,1.713,14.531,1.285,20.436c-0.428,5.902-0.857,22.394-0.857,22.394h-41.128c0,0-3.855-18.763-3.855-20.578
			c0-1.813,2.999-18.162,2.999-26.334c0-8.174,3-100.808,3-114.431c0-13.621-2.57-62.209-3.427-70.836s0.856-26.334,1.285-34.962
			c0.428-8.627,2.143-53.581,2.143-63.117c0-9.534-0.429-20.887-1.714-26.336c-1.285-5.448-0.856-15.438,0.429-24.065
			c1.286-8.627-2.999-37.235-2.999-43.592c0-6.357,1.714-21.796,2.142-32.693c0.428-10.897-1.713-20.433-1.713-27.244
			C219.072,33.554,221.214,13.68,221.214,13.68z"/>
		<path fill="#FFFFFF" stroke="#000000" stroke-linecap="round" stroke-linejoin="round" d="M294.104,13.68h46.699
			c0,0-1.285,19.582,0.43,31.838c1.713,12.256,0.855,48.568,0.855,55.377c0,6.808-1.285,45.846-0.855,53.108
			c0.428,7.263,1.283,46.3,0.428,53.563c-0.857,7.262-0.857,33.136-0.857,43.122c0,9.984-0.854,55.379-0.854,69.899
			c0,14.527,0.854,32.23,0.43,41.31c-0.43,9.08-3.43,52.201-3.43,63.549c0,11.349,0.43,35.857-0.43,44.938
			c-0.857,9.078-1.283,29.502-1.283,37.221c0,7.717-0.432,16.795-0.432,16.795h-35.129c0,0-1.285-33.592-0.855-44.029
			c0.43-10.438,2.998-59.918,0.43-76.26c-2.572-16.34-1.287-35.404-2.572-50.381c-1.285-14.979-1.285-50.385-1.285-64.911
			c0-14.524-2.141-50.385-1.285-63.549c0.857-13.163,2.57-42.214,0.857-48.569c-1.713-6.354,0.854-40.852-0.857-50.838
			s-2.141-46.753-2.141-60.825C291.963,50.966,294.104,13.68,294.104,13.68z"/>
		<path fill="#FFFFFF" stroke="#000000" stroke-linecap="round" stroke-linejoin="round" d="M378.19,13.68h29.131
			c0,0,0,29.41,0.857,36.676c0.855,7.266,3.426,17.255,2.143,25.428c-1.285,8.174-0.857,64.025-0.43,76.739
			c0.43,12.714,1.285,45.862,2.57,57.213c1.285,11.353,2.998,30.878,1.285,42.229c-1.713,11.352-4.713,39.505-3.428,45.407
			c1.283,5.903,0.428,33.603,0.428,45.408s4.715,26.791,3.855,37.234c-0.859,10.442-2.568,44.045-2.568,59.029
			c0,14.983,1.713,39.049,2.568,44.047c0.855,4.993,0.43,17.707,0.43,24.063c0,6.357-1.285,17.428-1.285,17.428h-35.561
			c0,0-1.283-14.702-1.713-20.151c-0.43-5.447,1.285-9.535,1.713-19.068c0.432-9.539,1.287-36.783,0.432-46.315
			c-0.857-9.537-4.285-52.675-4.285-64.025c0-11.352-1.285-50.857-0.43-64.025c0.854-13.166,4.283-56.305,3.428-62.208
			c-0.855-5.904-1.285-21.796-0.428-27.245c0.855-5.448-3.43-49.041-3-57.668s0.43-46.77,2.143-55.851
			c1.715-9.082-0.428-27.245-1.285-34.964c-0.855-7.72-0.428-23.158,1.285-31.332C377.762,33.555,378.19,13.68,378.19,13.68z"/>
		<path fill="#FFFFFF" stroke="#000000" stroke-linecap="round" stroke-linejoin="round" d="M449.606,13.68h41.557
			c0,0,0,22.152,0,27.604s-2.57,29.071-1.285,35.885c1.285,6.814,1.285,21.805,0.428,29.071c-0.854,7.269-1.285,66.772-1.713,74.95
			c-0.43,8.176,3.428,25.892,3.428,32.251c0,6.357-3.428,20.895-3,29.524c0.432,8.631,1.717,57.689,0.432,66.32
			s1.285,68.588,1.285,75.857c0,7.269-3.432,45.879-1.717,54.055c1.717,8.179,3.432,20.439,3.432,24.527
			c0,4.09-4.715,14.08-3.857,19.08c0.857,4.994,2.572,41.789,2.572,41.789h-34.705c0,0-3.426-49.965-3.855-59.051
			c-0.428-9.087,0.857-22.714,0.857-26.349s-3.855-36.791-2.143-43.607c1.715-6.811,0-38.153,0-43.151
			c0-4.996-3.43-13.172-0.855-23.166c2.57-9.99,1.285-49.06,0.855-66.318c-0.432-17.261,1.715-34.067,0-37.248
			c-1.713-3.18-3-10.447-1.285-15.897c1.715-5.451,1.715-57.688,2.143-66.319s-0.855-31.342-1.713-37.702
			c-0.857-6.359-0.43-18.624,0-25.438c0.428-6.813-0.857-31.343-0.857-39.52C449.606,32.652,449.606,13.68,449.606,13.68z"/>
	</g>
</g>
</svg>
